<svg xmlns="http://www.w3.org/2000/svg" viewBox="0 0 64 64"><defs><linearGradient id="g" x1="0" y1="0" x2="1" y2="1"><stop offset="0" stop-color="#ffd2e6"/><stop offset=".45" stop-color="#ff4f9a"/><stop offset="1" stop-color="#a855f7"/></linearGradient><linearGradient id="t" x1="0" y1="0" x2="0" y2="1"><stop offset="0" stop-color="#1d1430"/><stop offset="1" stop-color="#0c0814"/></linearGradient><radialGradient id="h" cx=".5" cy=".5" r=".5"><stop offset="0" stop-color="#ff4f9a" stop-opacity=".55"/><stop offset="1" stop-color="#ff4f9a" stop-opacity="0"/></radialGradient></defs><rect x="1.5" y="1.5" width="61" height="61" rx="16" fill="url(#t)" stroke="url(#g)" stroke-opacity=".55" stroke-width="1.5"/><circle cx="32" cy="32" r="22" fill="url(#h)"/><path d="M32 8c1.6 11.3 4.2 15.9 8.3 19.2 3.4 2.7 7.8 4.1 15.7 4.8-7.9.7-12.3 2.1-15.7 4.8C36.2 40.1 33.6 44.7 32 56c-1.6-11.3-4.2-15.9-8.3-19.2C20.3 34.1 15.9 32.7 8 32c7.9-.7 12.3-2.1 15.7-4.8C27.8 23.9 30.4 19.3 32 8z" fill="url(#g)"/><path d="M47 13.5c.5 2.6 1.2 3.4 3.5 4-2.3.6-3 1.4-3.5 4-.5-2.6-1.2-3.4-3.5-4 2.3-.6 3-1.4 3.5-4z" fill="#ffe3f0"/></svg>
